<svg xmlns="http://www.w3.org/2000/svg" fill="#fff" viewBox="0 0 24 24">
    <rect width="24" height="24" fill="#18181b" />
    <path d="M6.87 11.335v3.938H5.863V6.545h1.005V9.75h.086q.23-.507.69-.805.464-.303 1.236-.303 1.005 0 1.619.605.614.605.614 1.867v4.159h-1.006v-4.091q0-.78-.405-1.206-.4-.43-1.112-.43-.746 0-1.236.468-.486.465-.486 1.321zM13.96 11.335v3.938h-1.005V8.727h.971V9.75h.085q.23-.499.7-.801.468-.307 1.21-.307.992 0 1.602.61.613.609.613 1.862v4.159h-1.005v-4.091q0-.771-.4-1.202-.401-.435-1.1-.435-.72 0-1.198.47-.473.464-.473 1.32z" />
</svg>
